<?xml version="1.0" encoding="utf-8"?>
<!-- Generator: Adobe Illustrator 25.4.1, SVG Export Plug-In . SVG Version: 6.00 Build 0)  -->
<svg version="1.1" id="Layer_1" xmlns="http://www.w3.org/2000/svg" xmlns:xlink="http://www.w3.org/1999/xlink" x="0px" y="0px"
	 viewBox="0 0 100 100" style="enable-background:new 0 0 100 100;" xml:space="preserve">
<style type="text/css">
	.st0{fill:#FFFFFF;}
</style>
<path class="st0" d="M61,44.6c0,5.9-5,10.8-11,10.8s-11-4.9-11-10.8v-5.4c0-5.9,5-10.8,11-10.8c3,0,5.8,1.2,7.8,3.2
	c2,1.9,3.3,4.6,3.3,7.6V44.6z M99.6,26.3c-0.1-0.3-0.3-0.6-0.5-0.9c-1.4-2.8-3.1-5.4-5-7.8c-0.3-0.4-0.7-0.9-1-1.3
	c-2.1-2.6-5.4-4.1-8.7-4.1H33.4c-6.1,0-11,4.9-11,10.8v32.4c0,5.9-5,10.8-11,10.8H5.5c-3,0-5.5,2.4-5.5,5.4c0,0.8,0.2,1.5,0.4,2.1
	c0.1,0.3,0.3,0.6,0.5,0.9c1.4,2.8,3.1,5.4,5,7.8c0.3,0.4,0.7,0.9,1,1.3c2.1,2.6,5.4,4.1,8.7,4.1h17.8c6.1,0,11-4.9,11-10.8
	c0-3,2.5-5.4,5.5-5.4s5.5,2.4,5.5,5.4c0,3,1.2,5.7,3.3,7.6c2,2,4.7,3.2,7.8,3.2h5.5c6.1,0,11-4.9,11-10.8V44.6c0-5.9,5-10.8,11-10.8
	h0.3c3,0,5.5-2.4,5.5-5.4C100,27.6,99.8,26.9,99.6,26.3z"/>
</svg>
